<svg width="30" height="30" viewBox="0 0 30 30" fill="current" xmlns="http://www.w3.org/2000/svg">
<g clip-path="url(#clip0_10:2942)">
<path d="M25.9969 20.6275L25.9943 9.38207C25.9943 9.1618 25.9361 8.94545 25.8255 8.75491C25.715 8.56438 25.5561 8.40642 25.3649 8.29705L15.6222 2.67205C15.4318 2.56116 15.2156 2.50253 14.9953 2.50209C14.7751 2.50166 14.5586 2.55943 14.3679 2.66956L4.62772 8.28999C4.43769 8.3997 4.2799 8.5575 4.17019 8.74752C4.06048 8.93754 4.00272 9.1531 4.00272 9.37252L4.00536 20.6179C4.00536 20.8382 4.06356 21.0546 4.17407 21.2451C4.28458 21.4356 4.44347 21.5936 4.63466 21.703L14.3774 27.328C14.5678 27.4389 14.784 27.4975 15.0043 27.4979C15.2245 27.4984 15.441 27.4406 15.6318 27.3304L25.3719 21.71C25.5619 21.6003 25.7197 21.4425 25.8294 21.2525C25.9391 21.0625 25.9969 20.8469 25.9969 20.6275ZM14.9455 24.7691L6.51253 19.9004L6.50193 10.0938L15 5.19961L23.4871 10.0996L23.4977 19.9063L14.9455 24.7691Z" fill="current"/>
</g>
<defs>
<clipPath id="clip0_10:2942">
<rect width="30" height="30" fill="current"/>
</clipPath>
</defs>
</svg>
