<svg width="30" height="30" viewBox="0 0 30 30" fill="current" xmlns="http://www.w3.org/2000/svg">
<path d="M26.9875 11.4625L15.7375 3.2875C15.5234 3.13106 15.2651 3.04675 15 3.04675C14.7348 3.04675 14.4766 3.13106 14.2625 3.2875L3.01249 11.4625C2.79916 11.6184 2.64069 11.8378 2.55984 12.0893C2.47899 12.3409 2.47992 12.6115 2.56249 12.8625L6.86249 26.0875C6.94725 26.3486 7.11558 26.5745 7.34149 26.7303C7.56741 26.8862 7.83835 26.9634 8.11249 26.95H21.95C22.2241 26.9634 22.4951 26.8862 22.721 26.7303C22.9469 26.5745 23.1152 26.3486 23.2 26.0875L27.5 12.8625C27.5763 12.605 27.5676 12.3299 27.4753 12.0777C27.383 11.8256 27.212 11.6099 26.9875 11.4625ZM21.05 24.45H8.94999L5.19999 12.95L15 5.85L24.775 12.95L21.05 24.45Z" fill="current"/>
</svg>
