<svg width="30" height="30" viewBox="0 0 30 30" fill="current" xmlns="http://www.w3.org/2000/svg">
<path d="M27.3375 14.375L21.7125 4.63752C21.6024 4.44677 21.4438 4.2885 21.2528 4.17874C21.0619 4.06899 20.8453 4.01165 20.625 4.01252H9.37502C9.15476 4.01165 8.93818 4.06899 8.74721 4.17874C8.55624 4.2885 8.39766 4.44677 8.28752 4.63752L2.66252 14.375C2.55281 14.565 2.49506 14.7806 2.49506 15C2.49506 15.2194 2.55281 15.435 2.66252 15.625L8.28752 25.3625C8.39766 25.5533 8.55624 25.7115 8.74721 25.8213C8.93818 25.9311 9.15476 25.9884 9.37502 25.9875H20.625C20.8453 25.9884 21.0619 25.9311 21.2528 25.8213C21.4438 25.7115 21.6024 25.5533 21.7125 25.3625L27.3375 15.625C27.4472 15.435 27.505 15.2194 27.505 15C27.505 14.7806 27.4472 14.565 27.3375 14.375ZM19.8375 23.4875H10.1L5.18752 15L10.1 6.51252H19.9L24.8125 15L19.8375 23.4875Z" fill="current"/>
</svg>
