<svg width="17" height="17" viewBox="0 0 17 17" fill="none" xmlns="http://www.w3.org/2000/svg">
<path d="M8.5 6.90625V9.5625" stroke="#FE1F55" stroke-width="2" stroke-linecap="round" stroke-linejoin="round"/>
<path d="M7.58032 2.65523L1.73815 12.7485C1.64467 12.91 1.59537 13.0933 1.59522 13.2799C1.59506 13.4665 1.64406 13.6498 1.73727 13.8115C1.83049 13.9731 1.96463 14.1074 2.12621 14.2007C2.28779 14.2941 2.47111 14.3432 2.65772 14.3432H14.3421C14.5287 14.3432 14.712 14.2941 14.8736 14.2007C15.0352 14.1074 15.1693 13.9731 15.2625 13.8115C15.3557 13.6498 15.4047 13.4665 15.4046 13.2799C15.4044 13.0933 15.3551 12.91 15.2616 12.7485L9.41945 2.65523C9.32612 2.49399 9.19203 2.36012 9.03063 2.26706C8.86923 2.17399 8.6862 2.125 8.49989 2.125C8.31358 2.125 8.13055 2.17399 7.96915 2.26706C7.80775 2.36012 7.67366 2.49399 7.58032 2.65523V2.65523Z" stroke="#FE1F55" stroke-width="2" stroke-linecap="round" stroke-linejoin="round"/>
<path d="M8.5 12.75C8.9401 12.75 9.29688 12.3932 9.29688 11.9531C9.29688 11.513 8.9401 11.1562 8.5 11.1562C8.0599 11.1562 7.70312 11.513 7.70312 11.9531C7.70312 12.3932 8.0599 12.75 8.5 12.75Z" fill="#FE1F55"/>
</svg>
