<svg width="16" height="16" viewBox="0 0 16 16" fill="none" xmlns="http://www.w3.org/2000/svg">
<path d="M7.33366 1.33325C6.01512 1.33325 4.72619 1.72425 3.62986 2.45679C2.53353 3.18933 1.67905 4.23052 1.17446 5.4487C0.669881 6.66687 0.537859 8.00731 0.795093 9.30052C1.05233 10.5937 1.68727 11.7816 2.61962 12.714C3.55197 13.6463 4.73985 14.2813 6.03306 14.5385C7.32627 14.7957 8.66671 14.6637 9.88489 14.1591C11.1031 13.6545 12.1442 12.8 12.8768 11.7037C13.6093 10.6074 14.0003 9.31846 14.0003 7.99992C14.0003 7.12444 13.8279 6.25753 13.4929 5.4487C13.1578 4.63986 12.6668 3.90493 12.0477 3.28587C11.4286 2.66682 10.6937 2.17575 9.88489 1.84072C9.07605 1.50569 8.20914 1.33325 7.33366 1.33325V1.33325ZM7.33366 13.3333C6.27883 13.3333 5.24768 13.0205 4.37062 12.4344C3.49356 11.8484 2.80997 11.0154 2.4063 10.0409C2.00264 9.06636 1.89702 7.994 2.10281 6.95944C2.30859 5.92487 2.81655 4.97456 3.56243 4.22868C4.30831 3.4828 5.25862 2.97485 6.29318 2.76906C7.32775 2.56328 8.4001 2.66889 9.37464 3.07256C10.3492 3.47623 11.1821 4.15982 11.7682 5.03688C12.3542 5.91394 12.667 6.94509 12.667 7.99992C12.667 9.41441 12.1051 10.771 11.1049 11.7712C10.1047 12.7713 8.74815 13.3333 7.33366 13.3333V13.3333ZM9.40033 8.41992L8.00033 7.61325V4.66659C8.00033 4.48977 7.93009 4.32021 7.80507 4.19518C7.68004 4.07016 7.51047 3.99992 7.33366 3.99992C7.15685 3.99992 6.98728 4.07016 6.86226 4.19518C6.73723 4.32021 6.667 4.48977 6.667 4.66659V7.99992C6.667 7.99992 6.667 8.05325 6.667 8.07992C6.67094 8.12585 6.6822 8.17086 6.70033 8.21325C6.71406 8.25281 6.73194 8.2908 6.75366 8.32659C6.77191 8.36448 6.79426 8.40025 6.82033 8.43325L6.927 8.51992L6.987 8.57992L8.72033 9.57992C8.82193 9.63751 8.93688 9.66739 9.05366 9.66659C9.20127 9.66762 9.34505 9.61963 9.46245 9.53015C9.57985 9.44066 9.66424 9.31474 9.70237 9.17214C9.7405 9.02953 9.73022 8.87831 9.67314 8.74217C9.61607 8.60604 9.51542 8.49269 9.387 8.41992H9.40033Z" fill="#FE1F55"/>
</svg>
