<svg width="199" height="41" viewBox="0 0 199 41" fill="none" xmlns="http://www.w3.org/2000/svg">
<path d="M75.9434 27.7435C79.2957 27.7435 81.2028 25.9368 81.2028 23.287C81.2028 20.9785 79.8779 19.7138 77.0474 19.212L75.7426 18.9711C74.3977 18.7302 73.7954 18.2886 73.7954 17.2247C73.7954 16.1808 74.5783 15.5786 76.0839 15.5786C77.5694 15.5786 78.5329 16.1607 79.2154 17.0239L81.0221 15.3176C79.898 13.9727 78.3322 13.25 76.2244 13.25C73.0929 13.25 71.1457 14.876 71.1457 17.3853C71.1457 19.6737 72.5107 21.0187 75.3411 21.4603L76.666 21.661C78.1314 21.922 78.5731 22.5041 78.5731 23.4476C78.5731 24.632 77.73 25.4149 76.104 25.4149C74.6586 25.4149 73.4743 24.8126 72.5107 23.6885L70.7241 25.4149C71.9085 26.8 73.5546 27.7435 75.9434 27.7435Z" fill="#1D2435"/>
<path d="M86.8922 27.5026H88.739V25.455H86.7517V19.0715H88.8996V17.0239H86.7517V14.1533H84.4431V15.9399C84.4431 16.6626 84.2023 17.0239 83.4394 17.0239H82.6365V19.0715H84.1822V24.8327C84.1822 26.539 85.1257 27.5026 86.8922 27.5026Z" fill="#1D2435"/>
<path d="M93.7178 27.7435C95.2836 27.7435 96.4278 27.0409 96.7691 25.6959H96.8895C97.0501 26.7799 97.7326 27.5026 98.8367 27.5026H100.262V25.455H99.2181V20.5168C99.2181 18.128 97.7126 16.783 94.8821 16.783C92.7743 16.783 91.5498 17.586 90.787 18.7904L92.3126 20.1555C92.8145 19.4328 93.497 18.8306 94.7014 18.8306C96.0665 18.8306 96.6486 19.5131 96.6486 20.6774V21.4402H94.862C92.0115 21.4402 90.3855 22.5041 90.3855 24.6521C90.3855 26.5189 91.59 27.7435 93.7178 27.7435ZM94.581 25.8766C93.5773 25.8766 92.9952 25.455 92.9952 24.6119V24.2706C92.9952 23.4476 93.6576 22.9859 95.0026 22.9859H96.6486V24.371C96.6486 25.3546 95.7252 25.8766 94.581 25.8766Z" fill="#1D2435"/>
<path d="M104.911 27.5026V21.0789C104.911 19.9347 105.814 19.4529 107.541 19.4529H108.344V17.0239H107.782C106.115 17.0239 105.272 18.0878 105.011 19.1919H104.911V17.0239H102.341V27.5026H104.911Z" fill="#1D2435"/>
<path d="M113.573 27.5026H115.419V25.455H113.432V19.0715H115.58V17.0239H113.432V14.1533H111.124V15.9399C111.124 16.6626 110.883 17.0239 110.12 17.0239H109.317V19.0715H110.863V24.8327C110.863 26.539 111.806 27.5026 113.573 27.5026Z" fill="#1D2435"/>
<path d="M124.072 27.5026H126.641V17.0239H124.072V23.9495C124.072 25.0736 123.048 25.6156 122.024 25.6156C120.8 25.6156 120.258 24.8327 120.258 23.3874V17.0239H117.688V23.6484C117.688 26.258 118.893 27.7435 121.041 27.7435C122.767 27.7435 123.61 26.8 123.971 25.7561H124.072V27.5026Z" fill="#1D2435"/>
<path d="M129.61 31.5174H132.179V25.7561H132.26C132.661 26.9405 133.765 27.7435 135.15 27.7435C137.8 27.7435 139.266 25.7561 139.266 22.2432C139.266 18.7503 137.8 16.783 135.15 16.783C133.765 16.783 132.641 17.5459 132.26 18.7503H132.179V17.0239H129.61V31.5174ZM134.327 25.6156C133.103 25.6156 132.179 24.9933 132.179 23.9093V20.577C132.179 19.5533 133.103 18.8908 134.327 18.8908C135.652 18.8908 136.576 19.8744 136.576 21.3599V23.1666C136.576 24.6521 135.652 25.6156 134.327 25.6156Z" fill="#1D2435"/>
<path d="M155.484 27.5026H157.773V19.8744H152.473V22.1027H155.223V23.006C155.223 24.5918 153.878 25.3948 152.232 25.3948C150.124 25.3948 148.759 24.0699 148.759 21.6209V19.3726C148.759 16.9035 150.124 15.5987 152.192 15.5987C153.858 15.5987 154.842 16.502 155.344 17.7064L157.492 16.4418C156.488 14.3942 154.681 13.25 152.192 13.25C148.458 13.25 145.949 15.8396 145.949 20.5369C145.949 25.2342 148.438 27.7435 151.73 27.7435C153.838 27.7435 155.163 26.6996 155.404 25.3346H155.484V27.5026Z" fill="#1D2435"/>
<path d="M166.945 27.5026H169.514V17.0239H166.945V23.9495C166.945 25.0736 165.921 25.6156 164.897 25.6156C163.673 25.6156 163.131 24.8327 163.131 23.3874V17.0239H160.561V23.6484C160.561 26.258 161.766 27.7435 163.914 27.7435C165.64 27.7435 166.483 26.8 166.844 25.7561H166.945V27.5026Z" fill="#1D2435"/>
<path d="M173.768 15.4983C174.812 15.4983 175.273 14.9563 175.273 14.2136V13.8121C175.273 13.0693 174.812 12.5273 173.768 12.5273C172.704 12.5273 172.262 13.0693 172.262 13.8121V14.2136C172.262 14.9563 172.704 15.4983 173.768 15.4983ZM172.483 27.5026H175.052V17.0239H172.483V27.5026Z" fill="#1D2435"/>
<path d="M184.535 27.5026H187.104V12.6478H184.535V18.7503H184.434C184.073 17.5459 182.929 16.783 181.544 16.783C178.914 16.783 177.449 18.7503 177.449 22.2432C177.449 25.7561 178.914 27.7435 181.544 27.7435C182.929 27.7435 184.053 26.9405 184.434 25.7561H184.535V27.5026ZM182.367 25.6156C181.042 25.6156 180.139 24.6521 180.139 23.1666V21.3599C180.139 19.8744 181.042 18.8908 182.367 18.8908C183.591 18.8908 184.535 19.5533 184.535 20.577V23.9093C184.535 24.9933 183.591 25.6156 182.367 25.6156Z" fill="#1D2435"/>
<path d="M194.303 27.7435C196.25 27.7435 197.776 27.0007 198.639 25.8163L197.254 24.2706C196.611 25.0937 195.849 25.6959 194.584 25.6959C192.898 25.6959 192.035 24.6721 192.035 23.1666V22.9056H199V22.0625C199 19.1919 197.495 16.783 194.223 16.783C191.151 16.783 189.365 18.931 189.365 22.2432C189.365 25.5955 191.212 27.7435 194.303 27.7435ZM194.263 18.7101C195.588 18.7101 196.33 19.6938 196.33 21.1391V21.3198H192.035V21.1592C192.035 19.7138 192.918 18.7101 194.263 18.7101Z" fill="#1D2435"/>
<g style="mix-blend-mode:multiply">
<path d="M32.6678 10.1051C27.087 15.6859 27.0684 24.7156 32.6263 30.2735L52.8363 10.0635C47.2784 4.50559 38.2487 4.52421 32.6678 10.1051Z" fill="#0458FE"/>
</g>
<mask id="mask0_30:1726" style="mask-type:alpha" maskUnits="userSpaceOnUse" x="28" y="5" width="25" height="26">
<g style="mix-blend-mode:multiply">
<path d="M32.6678 10.106C27.087 15.6869 27.0684 24.7166 32.6263 30.2745L52.8363 10.0645C47.2784 4.50657 38.2487 4.52519 32.6678 10.106Z" fill="#0458FE"/>
</g>
</mask>
<g mask="url(#mask0_30:1726)">
<rect x="53.2694" y="5.88184" width="1.34544" height="44.6204" transform="rotate(45 53.2694 5.88184)" fill="#DEECFF"/>
<rect x="45.6251" y="2.29834" width="1.34544" height="44.6204" transform="rotate(45 45.6251 2.29834)" fill="#DEECFF"/>
<rect x="50.6952" y="4.70068" width="1.34544" height="44.6204" transform="rotate(45 50.6952 4.70068)" fill="#DEECFF"/>
<rect x="43.2101" y="0.958496" width="1.34544" height="44.6204" transform="rotate(45 43.2101 0.958496)" fill="#DEECFF"/>
<rect x="47.9329" y="3.74902" width="1.34544" height="44.6204" transform="rotate(45 47.9329 3.74902)" fill="#DEECFF"/>
</g>
<g style="mix-blend-mode:multiply">
<path d="M32.6681 30.3623C38.2489 35.9432 47.2786 35.9618 52.8365 30.4039L32.6265 10.1938C27.0686 15.7517 27.0872 24.7815 32.6681 30.3623Z" fill="#0458FE"/>
</g>
<path d="M26.0499 20.2337H9.16687C5.11117 20.2337 1.82642 17.0183 1.82642 13.0573C1.82642 9.0922 5.11527 5.88086 9.16687 5.88086H26.0499V20.2337Z" fill="#FF1F55"/>
<g style="mix-blend-mode:multiply">
<path d="M0.638643 20.2347L17.475 20.2347C21.5195 20.2347 24.7952 23.4412 24.7952 27.3913C24.7952 31.3454 21.5154 34.5479 17.475 34.5478L0.638641 34.5478L0.638643 20.2347Z" fill="#0458FE"/>
</g>
<path d="M42.6805 20.2349C50.5891 20.2349 57.0003 26.646 57.0003 34.5546H42.6805V20.2349Z" fill="#FF1F55"/>
<rect x="10.4824" y="20.2349" width="14.3128" height="14.3128" rx="7.15639" fill="#001EFD"/>
<rect x="11.8416" y="21.5933" width="11.595" height="11.595" rx="5.7975" fill="#0458FE"/>
<rect x="13.2501" y="23.0015" width="8.77773" height="8.77773" rx="4.38887" fill="#001EFD"/>
<rect x="14.7045" y="24.4565" width="5.8689" height="5.8689" rx="2.93445" fill="#0458FE"/>
<rect x="16.1184" y="25.8701" width="3.04086" height="3.04086" rx="1.52043" fill="#001EFD"/>
<rect x="1.84619" y="5.88086" width="14.3531" height="14.3531" rx="7.17657" fill="#E11646"/>
<rect x="3.22522" y="7.26074" width="11.595" height="11.595" rx="5.7975" fill="#FF1F55"/>
<rect x="4.63367" y="8.66846" width="8.77773" height="8.77773" rx="4.38887" fill="#E11646"/>
<rect x="6.08838" y="10.1235" width="5.8689" height="5.8689" rx="2.93445" fill="#FF1F55"/>
<rect x="7.50232" y="11.5371" width="3.04086" height="3.04086" rx="1.52043" fill="#E11646"/>
</svg>
