<svg width="320" height="93" viewBox="0 0 320 93" fill="none" xmlns="http://www.w3.org/2000/svg">
<rect width="320" height="93" fill="#FF1F55"/>
<path d="M76.7607 43.168C79.1967 43.168 80.7227 41.922 80.7227 40.102C80.7227 38.688 79.6447 38.002 78.5247 37.946V37.862C79.6447 37.75 80.5547 37.12 80.5547 35.79C80.5547 34.11 79.1407 33.06 76.8307 33.06C75.4867 33.06 74.2687 33.592 73.4567 34.488L74.7447 35.832C75.2487 35.272 76.0607 34.95 76.8307 34.95C77.8107 34.95 78.3007 35.3 78.3007 35.972V36.042C78.3007 36.77 77.8667 37.12 76.9987 37.12H75.3887V38.996H77.0827C78.0347 38.996 78.4687 39.304 78.4687 40.046V40.158C78.4687 40.858 77.8807 41.278 76.7607 41.278C75.8927 41.278 75.1647 40.928 74.5767 40.312L73.1767 41.726C74.1287 42.706 75.3327 43.168 76.7607 43.168ZM91.0932 43L87.9152 33.228H85.2832L82.0632 43H84.2192L84.9192 40.676H88.1812L88.8812 43H91.0932ZM87.6632 38.87H85.4232L86.5012 35.16H86.5712L87.6632 38.87ZM95.2732 43V39.472H97.7652C99.5852 39.472 100.733 38.198 100.733 36.35C100.733 34.502 99.5852 33.228 97.7652 33.228H93.1452V43H95.2732ZM95.2732 35.076H97.5132C98.1432 35.076 98.5352 35.412 98.5352 36.042V36.658C98.5352 37.288 98.1432 37.624 97.5132 37.624H95.2732V35.076ZM109.683 43V41.11H105.161V38.996H109.039V37.12H105.161V35.118H109.683V33.228H103.033V43H109.683ZM112.237 43H114.365V35.118H117.977V33.228H112.237V43ZM120.128 43H122.032L125.252 38.03L126.218 36.168H126.26L126.036 38.226V43H128.108V33.228H126.204L122.984 38.198L122.018 40.06H121.976L122.2 38.002V33.228H120.128V43ZM134.907 43.168C136.699 43.168 137.861 42.314 138.589 40.83L136.853 39.822C136.559 40.62 135.957 41.278 134.907 41.278C133.661 41.278 132.835 40.438 132.835 38.898V37.33C132.835 35.79 133.661 34.95 134.907 34.95C135.957 34.95 136.475 35.496 136.727 36.308L138.561 35.356C137.847 33.788 136.699 33.06 134.907 33.06C132.275 33.06 130.581 34.88 130.581 38.184C130.581 41.488 132.275 43.168 134.907 43.168ZM147.498 35.118V33.228H140.078V35.118H142.724V43H144.852V35.118H147.498ZM151.782 43V39.472H154.274C156.094 39.472 157.242 38.198 157.242 36.35C157.242 34.502 156.094 33.228 154.274 33.228H149.654V43H151.782ZM151.782 35.076H154.022C154.652 35.076 155.044 35.412 155.044 36.042V36.658C155.044 37.288 154.652 37.624 154.022 37.624H151.782V35.076ZM159.541 43H161.445L164.665 38.03L165.631 36.168H165.673L165.449 38.226V43H167.521V33.228H165.617L162.397 38.198L161.431 40.06H161.389L161.613 38.002V33.228H159.541V43ZM172.5 43V39.472H174.992C176.812 39.472 177.96 38.198 177.96 36.35C177.96 34.502 176.812 33.228 174.992 33.228H170.372V43H172.5ZM172.5 35.076H174.74C175.37 35.076 175.762 35.412 175.762 36.042V36.658C175.762 37.288 175.37 37.624 174.74 37.624H172.5V35.076ZM184.18 43.168C186.77 43.168 188.478 41.432 188.478 38.114C188.478 34.796 186.77 33.06 184.18 33.06C181.59 33.06 179.882 34.796 179.882 38.114C179.882 41.432 181.59 43.168 184.18 43.168ZM184.18 41.278C182.906 41.278 182.136 40.396 182.136 38.842V37.386C182.136 35.832 182.906 34.95 184.18 34.95C185.454 34.95 186.224 35.832 186.224 37.386V38.842C186.224 40.396 185.454 41.278 184.18 41.278ZM190.954 43H196.134C197.576 43 198.654 41.754 198.654 40.214C198.654 38.534 197.38 37.918 196.456 37.918V37.834C197.45 37.792 198.276 37.232 198.276 35.734C198.276 34.222 197.31 33.228 195.7 33.228H190.954V43ZM193.082 38.968H195.532C196.092 38.968 196.442 39.29 196.442 39.85V40.326C196.442 40.886 196.092 41.208 195.532 41.208H193.082V38.968ZM193.082 35.02H195.196C195.756 35.02 196.092 35.356 196.092 35.916V36.336C196.092 36.896 195.756 37.232 195.196 37.232H193.082V35.02ZM209.019 43L205.841 33.228H203.209L199.989 43H202.145L202.845 40.676H206.107L206.807 43H209.019ZM205.589 38.87H203.349L204.427 35.16H204.497L205.589 38.87ZM216.875 35.118V33.228H209.455V35.118H212.101V43H214.229V35.118H216.875ZM219.03 43H223.79C225.61 43 226.758 41.726 226.758 39.878C226.758 38.03 225.61 36.756 223.79 36.756H221.158V33.228H219.03V43ZM221.158 41.152V38.604H223.538C224.168 38.604 224.56 38.94 224.56 39.57V40.186C224.56 40.816 224.168 41.152 223.538 41.152H221.158ZM232.948 43.168C234.74 43.168 235.902 42.314 236.63 40.83L234.894 39.822C234.6 40.62 233.998 41.278 232.948 41.278C231.702 41.278 230.876 40.438 230.876 38.898V37.33C230.876 35.79 231.702 34.95 232.948 34.95C233.998 34.95 234.516 35.496 234.768 36.308L236.602 35.356C235.888 33.788 234.74 33.06 232.948 33.06C230.316 33.06 228.622 34.88 228.622 38.184C228.622 41.488 230.316 43.168 232.948 43.168ZM238.329 43H239.365C240.121 43 240.569 42.818 241.101 41.978L242.739 39.416H244.027V43H246.155V33.228H241.521C239.715 33.228 238.567 34.488 238.567 36.35C238.567 37.96 239.519 38.996 240.947 39.136V39.22C240.443 39.304 240.219 39.514 239.995 39.864L239.197 41.11H238.329V43ZM241.787 37.624C241.157 37.624 240.765 37.288 240.765 36.644V36.042C240.765 35.412 241.157 35.076 241.787 35.076H244.027V37.624H241.787ZM135.793 61H140.973C142.415 61 143.493 59.754 143.493 58.214C143.493 56.534 142.219 55.918 141.295 55.918V55.834C142.289 55.792 143.115 55.232 143.115 53.734C143.115 52.222 142.149 51.228 140.539 51.228H135.793V61ZM137.921 56.968H140.371C140.931 56.968 141.281 57.29 141.281 57.85V58.326C141.281 58.886 140.931 59.208 140.371 59.208H137.921V56.968ZM137.921 53.02H140.035C140.595 53.02 140.931 53.356 140.931 53.916V54.336C140.931 54.896 140.595 55.232 140.035 55.232H137.921V53.02ZM149.751 61.168C152.341 61.168 154.049 59.432 154.049 56.114C154.049 52.796 152.341 51.06 149.751 51.06C147.161 51.06 145.453 52.796 145.453 56.114C145.453 59.432 147.161 61.168 149.751 61.168ZM149.751 59.278C148.477 59.278 147.707 58.396 147.707 56.842V55.386C147.707 53.832 148.477 52.95 149.751 52.95C151.025 52.95 151.795 53.832 151.795 55.386V56.842C151.795 58.396 151.025 59.278 149.751 59.278ZM160.543 50.64C161.775 50.64 162.517 50.08 162.937 49.072L163.231 48.358L161.621 47.756L161.173 49.17C161.061 49.226 160.781 49.268 160.543 49.268C160.305 49.268 160.025 49.226 159.913 49.17L159.465 47.756L157.855 48.358L158.149 49.072C158.569 50.08 159.311 50.64 160.543 50.64ZM156.525 61H158.429L161.649 56.03L162.615 54.168H162.657L162.433 56.226V61H164.505V51.228H162.601L159.381 56.198L158.415 58.06H158.373L158.597 56.002V51.228H156.525V61ZM174.076 53.118V51.228H166.656V53.118H169.302V61H171.43V53.118H174.076ZM176.232 61H178.136L181.356 56.03L182.322 54.168H182.364L182.14 56.226V61H184.212V51.228H182.308L179.088 56.198L178.122 58.06H178.08L178.304 56.002V51.228H176.232V61Z" fill="white"/>
</svg>
