<svg width="628" height="45" viewBox="0 0 628 45" fill="none" xmlns="http://www.w3.org/2000/svg">
<rect x="0.5" y="0.5" width="627" height="44" rx="6.5" fill="white" stroke="#EEEEEE"/>
<path d="M22.48 22.944H16.832V28H15.488V16.832H16.832V21.76H22.48V16.832H23.824V28H22.48V22.944ZM32.6725 28C32.1925 28 31.8458 27.872 31.6325 27.616C31.4298 27.36 31.3018 27.04 31.2485 26.656H31.1685C30.9872 27.168 30.6885 27.552 30.2725 27.808C29.8565 28.064 29.3605 28.192 28.7845 28.192C27.9098 28.192 27.2272 27.968 26.7365 27.52C26.2565 27.072 26.0165 26.464 26.0165 25.696C26.0165 24.9173 26.2992 24.32 26.8645 23.904C27.4405 23.488 28.3312 23.28 29.5365 23.28H31.1685V22.464C31.1685 21.8773 31.0085 21.4293 30.6885 21.12C30.3685 20.8107 29.8778 20.656 29.2165 20.656C28.7152 20.656 28.2938 20.768 27.9525 20.992C27.6218 21.216 27.3445 21.5147 27.1205 21.888L26.3525 21.168C26.5765 20.72 26.9338 20.3413 27.4245 20.032C27.9152 19.712 28.5338 19.552 29.2805 19.552C30.2832 19.552 31.0618 19.7973 31.6165 20.288C32.1712 20.7787 32.4485 21.4613 32.4485 22.336V26.88H33.3925V28H32.6725ZM28.9925 27.104C29.3125 27.104 29.6058 27.0667 29.8725 26.992C30.1392 26.9173 30.3685 26.8107 30.5605 26.672C30.7525 26.5333 30.9018 26.3733 31.0085 26.192C31.1152 26.0107 31.1685 25.8133 31.1685 25.6V24.24H29.4725C28.7365 24.24 28.1978 24.3467 27.8565 24.56C27.5258 24.7733 27.3605 25.0827 27.3605 25.488V25.824C27.3605 26.2293 27.5045 26.544 27.7925 26.768C28.0912 26.992 28.4912 27.104 28.9925 27.104ZM35.2194 19.744H36.4674V24.32L36.3394 26.304H36.4034L37.4274 24.544L40.7234 19.744H41.9074V28H40.6594V23.424L40.7874 21.44H40.7234L39.6994 23.2L36.4034 28H35.2194V19.744ZM38.5954 18.464C38.0194 18.464 37.5607 18.352 37.2194 18.128C36.878 17.8933 36.606 17.5893 36.4034 17.216L36.0834 16.608L37.2034 16.112L37.7634 17.424C37.8914 17.456 38.03 17.4827 38.1794 17.504C38.3287 17.5147 38.4674 17.52 38.5954 17.52C38.7234 17.52 38.862 17.5147 39.0114 17.504C39.1607 17.4827 39.2994 17.456 39.4274 17.424L39.9874 16.112L41.1074 16.608L40.7874 17.216C40.5847 17.5893 40.3127 17.8933 39.9714 18.128C39.63 18.352 39.1714 18.464 38.5954 18.464ZM46.4016 20.864H43.5856V19.744H50.4976V20.864H47.6816V28H46.4016V20.864ZM52.1725 19.744H53.4205V24.32L53.2925 26.304H53.3565L54.3805 24.544L57.6765 19.744H58.8605V28H57.6125V23.424L57.7405 21.44H57.6765L56.6525 23.2L53.3565 28H52.1725V19.744ZM68.432 28.192C67.856 28.192 67.3387 28.0907 66.88 27.888C66.4213 27.6853 66.032 27.3973 65.712 27.024C65.4027 26.6507 65.1627 26.1973 64.992 25.664C64.832 25.1307 64.752 24.5333 64.752 23.872C64.752 23.2107 64.832 22.6133 64.992 22.08C65.1627 21.5467 65.4027 21.0933 65.712 20.72C66.032 20.3467 66.4213 20.0587 66.88 19.856C67.3387 19.6533 67.856 19.552 68.432 19.552C69.2533 19.552 69.9093 19.7333 70.4 20.096C70.9013 20.448 71.2747 20.912 71.52 21.488L70.448 22.032C70.2987 21.6053 70.0533 21.2747 69.712 21.04C69.3707 20.8053 68.944 20.688 68.432 20.688C68.048 20.688 67.712 20.752 67.424 20.88C67.136 20.9973 66.896 21.168 66.704 21.392C66.512 21.6053 66.368 21.8667 66.272 22.176C66.176 22.4747 66.128 22.8053 66.128 23.168V24.576C66.128 25.3013 66.32 25.8987 66.704 26.368C67.0987 26.8267 67.6747 27.056 68.432 27.056C69.4667 27.056 70.2133 26.576 70.672 25.616L71.6 26.24C71.3333 26.8373 70.9333 27.312 70.4 27.664C69.8773 28.016 69.2213 28.192 68.432 28.192ZM75.2454 20.864H72.4294V19.744H79.3414V20.864H76.5254V28H75.2454V20.864ZM86.8131 28C86.3331 28 85.9865 27.872 85.7731 27.616C85.5705 27.36 85.4425 27.04 85.3891 26.656H85.3091C85.1278 27.168 84.8291 27.552 84.4131 27.808C83.9971 28.064 83.5011 28.192 82.9251 28.192C82.0505 28.192 81.3678 27.968 80.8771 27.52C80.3971 27.072 80.1571 26.464 80.1571 25.696C80.1571 24.9173 80.4398 24.32 81.0051 23.904C81.5811 23.488 82.4718 23.28 83.6771 23.28H85.3091V22.464C85.3091 21.8773 85.1491 21.4293 84.8291 21.12C84.5091 20.8107 84.0185 20.656 83.3571 20.656C82.8558 20.656 82.4345 20.768 82.0931 20.992C81.7625 21.216 81.4851 21.5147 81.2611 21.888L80.4931 21.168C80.7171 20.72 81.0745 20.3413 81.5651 20.032C82.0558 19.712 82.6745 19.552 83.4211 19.552C84.4238 19.552 85.2025 19.7973 85.7571 20.288C86.3118 20.7787 86.5891 21.4613 86.5891 22.336V26.88H87.5331V28H86.8131ZM83.1331 27.104C83.4531 27.104 83.7465 27.0667 84.0131 26.992C84.2798 26.9173 84.5091 26.8107 84.7011 26.672C84.8931 26.5333 85.0425 26.3733 85.1491 26.192C85.2558 26.0107 85.3091 25.8133 85.3091 25.6V24.24H83.6131C82.8771 24.24 82.3385 24.3467 81.9971 24.56C81.6665 24.7733 81.5011 25.0827 81.5011 25.488V25.824C81.5011 26.2293 81.6451 26.544 81.9331 26.768C82.2318 26.992 82.6318 27.104 83.1331 27.104ZM89.36 19.744H90.64V21.088H90.704C90.9173 20.5653 91.2267 20.1813 91.632 19.936C92.048 19.68 92.544 19.552 93.12 19.552C93.632 19.552 94.096 19.6533 94.512 19.856C94.928 20.0587 95.28 20.3467 95.568 20.72C95.8667 21.0933 96.0907 21.5467 96.24 22.08C96.4 22.6133 96.48 23.2107 96.48 23.872C96.48 24.5333 96.4 25.1307 96.24 25.664C96.0907 26.1973 95.8667 26.6507 95.568 27.024C95.28 27.3973 94.928 27.6853 94.512 27.888C94.096 28.0907 93.632 28.192 93.12 28.192C92 28.192 91.1947 27.68 90.704 26.656H90.64V31.2H89.36V19.744ZM92.768 27.04C93.4933 27.04 94.064 26.816 94.48 26.368C94.896 25.9093 95.104 25.312 95.104 24.576V23.168C95.104 22.432 94.896 21.84 94.48 21.392C94.064 20.9333 93.4933 20.704 92.768 20.704C92.48 20.704 92.2027 20.7467 91.936 20.832C91.68 20.9067 91.456 21.0133 91.264 21.152C91.072 21.2907 90.9173 21.4613 90.8 21.664C90.6933 21.856 90.64 22.064 90.64 22.288V25.36C90.64 25.6267 90.6933 25.8667 90.8 26.08C90.9173 26.2827 91.072 26.4587 91.264 26.608C91.456 26.7467 91.68 26.8533 91.936 26.928C92.2027 27.0027 92.48 27.04 92.768 27.04ZM100.23 20.864H97.4138V19.744H104.326V20.864H101.51V28H100.23V20.864ZM111.798 28C111.318 28 110.971 27.872 110.758 27.616C110.555 27.36 110.427 27.04 110.374 26.656H110.294C110.112 27.168 109.814 27.552 109.398 27.808C108.982 28.064 108.486 28.192 107.91 28.192C107.035 28.192 106.352 27.968 105.862 27.52C105.382 27.072 105.142 26.464 105.142 25.696C105.142 24.9173 105.424 24.32 105.99 23.904C106.566 23.488 107.456 23.28 108.661 23.28H110.294V22.464C110.294 21.8773 110.134 21.4293 109.814 21.12C109.494 20.8107 109.003 20.656 108.342 20.656C107.84 20.656 107.419 20.768 107.078 20.992C106.747 21.216 106.47 21.5147 106.246 21.888L105.478 21.168C105.702 20.72 106.059 20.3413 106.549 20.032C107.04 19.712 107.659 19.552 108.406 19.552C109.408 19.552 110.187 19.7973 110.742 20.288C111.296 20.7787 111.574 21.4613 111.574 22.336V26.88H112.517V28H111.798ZM108.118 27.104C108.438 27.104 108.731 27.0667 108.998 26.992C109.264 26.9173 109.494 26.8107 109.686 26.672C109.878 26.5333 110.027 26.3733 110.134 26.192C110.24 26.0107 110.294 25.8133 110.294 25.6V24.24H108.598C107.862 24.24 107.323 24.3467 106.982 24.56C106.651 24.7733 106.486 25.0827 106.486 25.488V25.824C106.486 26.2293 106.63 26.544 106.918 26.768C107.216 26.992 107.616 27.104 108.118 27.104ZM114.344 19.744H120.792V28H119.512V20.864H115.624V28H114.344V19.744ZM124.332 26.128C124.674 26.128 124.919 26.2187 125.068 26.4C125.228 26.5707 125.308 26.7947 125.308 27.072V27.296C125.308 27.7333 125.18 28.2133 124.924 28.736C124.668 29.2693 124.311 29.7333 123.852 30.128H122.78C123.1 29.7867 123.356 29.4613 123.548 29.152C123.751 28.8533 123.895 28.5173 123.98 28.144C123.767 28.0907 123.607 27.9893 123.5 27.84C123.404 27.6907 123.356 27.5093 123.356 27.296V27.072C123.356 26.7947 123.431 26.5707 123.58 26.4C123.74 26.2187 123.991 26.128 124.332 26.128ZM131.657 19.744H132.905V24.32L132.777 26.304H132.841L133.865 24.544L137.161 19.744H138.345V28H137.097V23.424L137.225 21.44H137.161L136.137 23.2L132.841 28H131.657V19.744ZM141.063 19.744H142.343V23.184H146.471V19.744H147.751V28H146.471V24.304H142.343V28H141.063V19.744ZM150.469 19.744H154.629C155.301 19.744 155.829 19.936 156.213 20.32C156.597 20.6933 156.789 21.2 156.789 21.84C156.789 22.8747 156.251 23.456 155.173 23.584V23.648C155.813 23.7013 156.288 23.904 156.597 24.256C156.917 24.5973 157.077 25.024 157.077 25.536C157.077 25.8667 157.024 26.1813 156.917 26.48C156.821 26.7787 156.677 27.04 156.485 27.264C156.293 27.488 156.059 27.6693 155.781 27.808C155.504 27.936 155.189 28 154.837 28H150.469V19.744ZM154.453 26.944C154.837 26.944 155.141 26.8427 155.365 26.64C155.589 26.4373 155.701 26.1493 155.701 25.776V25.408C155.701 25.0347 155.589 24.7467 155.365 24.544C155.141 24.3413 154.837 24.24 154.453 24.24H151.749V26.944H154.453ZM154.293 23.2C154.645 23.2 154.917 23.1147 155.109 22.944C155.312 22.7627 155.413 22.5067 155.413 22.176V21.824C155.413 21.4933 155.312 21.2427 155.109 21.072C154.917 20.8907 154.645 20.8 154.293 20.8H151.749V23.2H154.293ZM162.495 28.192C161.93 28.192 161.418 28.0907 160.959 27.888C160.511 27.6853 160.122 27.3973 159.791 27.024C159.471 26.64 159.221 26.1867 159.039 25.664C158.869 25.1307 158.783 24.5333 158.783 23.872C158.783 23.2213 158.869 22.6293 159.039 22.096C159.221 21.5627 159.471 21.1093 159.791 20.736C160.122 20.352 160.511 20.0587 160.959 19.856C161.418 19.6533 161.93 19.552 162.495 19.552C163.05 19.552 163.546 19.6533 163.983 19.856C164.421 20.0587 164.794 20.3413 165.103 20.704C165.413 21.056 165.647 21.4773 165.807 21.968C165.978 22.4587 166.063 22.9973 166.063 23.584V24.192H160.127V24.576C160.127 24.928 160.181 25.2587 160.287 25.568C160.405 25.8667 160.565 26.128 160.767 26.352C160.981 26.576 161.237 26.752 161.535 26.88C161.845 27.008 162.191 27.072 162.575 27.072C163.098 27.072 163.551 26.9493 163.935 26.704C164.33 26.4587 164.634 26.1067 164.847 25.648L165.759 26.304C165.493 26.8693 165.077 27.328 164.511 27.68C163.946 28.0213 163.274 28.192 162.495 28.192ZM162.495 20.624C162.143 20.624 161.823 20.688 161.535 20.816C161.247 20.9333 160.997 21.104 160.783 21.328C160.581 21.552 160.421 21.8187 160.303 22.128C160.186 22.4267 160.127 22.7573 160.127 23.12V23.232H164.687V23.056C164.687 22.32 164.485 21.7333 164.079 21.296C163.685 20.848 163.157 20.624 162.495 20.624ZM171.245 28.192C170.669 28.192 170.151 28.0907 169.693 27.888C169.234 27.6853 168.845 27.3973 168.525 27.024C168.215 26.6507 167.975 26.1973 167.805 25.664C167.645 25.1307 167.565 24.5333 167.565 23.872C167.565 23.2107 167.645 22.6133 167.805 22.08C167.975 21.5467 168.215 21.0933 168.525 20.72C168.845 20.3467 169.234 20.0587 169.693 19.856C170.151 19.6533 170.669 19.552 171.245 19.552C172.066 19.552 172.722 19.7333 173.213 20.096C173.714 20.448 174.087 20.912 174.333 21.488L173.261 22.032C173.111 21.6053 172.866 21.2747 172.525 21.04C172.183 20.8053 171.757 20.688 171.245 20.688C170.861 20.688 170.525 20.752 170.237 20.88C169.949 20.9973 169.709 21.168 169.517 21.392C169.325 21.6053 169.181 21.8667 169.085 22.176C168.989 22.4747 168.941 22.8053 168.941 23.168V24.576C168.941 25.3013 169.133 25.8987 169.517 26.368C169.911 26.8267 170.487 27.056 171.245 27.056C172.279 27.056 173.026 26.576 173.485 25.616L174.413 26.24C174.146 26.8373 173.746 27.312 173.213 27.664C172.69 28.016 172.034 28.192 171.245 28.192ZM178.058 20.864H175.242V19.744H182.154V20.864H179.338V28H178.058V20.864ZM186.746 28.192C186.191 28.192 185.684 28.0907 185.226 27.888C184.767 27.6853 184.372 27.3973 184.042 27.024C183.722 26.64 183.471 26.1867 183.29 25.664C183.108 25.1307 183.018 24.5333 183.018 23.872C183.018 23.2213 183.108 22.6293 183.29 22.096C183.471 21.5627 183.722 21.1093 184.042 20.736C184.372 20.352 184.767 20.0587 185.226 19.856C185.684 19.6533 186.191 19.552 186.746 19.552C187.3 19.552 187.802 19.6533 188.25 19.856C188.708 20.0587 189.103 20.352 189.434 20.736C189.764 21.1093 190.02 21.5627 190.202 22.096C190.383 22.6293 190.474 23.2213 190.474 23.872C190.474 24.5333 190.383 25.1307 190.202 25.664C190.02 26.1867 189.764 26.64 189.434 27.024C189.103 27.3973 188.708 27.6853 188.25 27.888C187.802 28.0907 187.3 28.192 186.746 28.192ZM186.746 27.056C187.439 27.056 188.004 26.8427 188.442 26.416C188.879 25.9893 189.098 25.3387 189.098 24.464V23.28C189.098 22.4053 188.879 21.7547 188.442 21.328C188.004 20.9013 187.439 20.688 186.746 20.688C186.052 20.688 185.487 20.9013 185.05 21.328C184.612 21.7547 184.394 22.4053 184.394 23.28V24.464C184.394 25.3387 184.612 25.9893 185.05 26.416C185.487 26.8427 186.052 27.056 186.746 27.056ZM192.579 19.744H193.859V21.088H193.923C194.136 20.5653 194.445 20.1813 194.851 19.936C195.267 19.68 195.763 19.552 196.339 19.552C196.851 19.552 197.315 19.6533 197.731 19.856C198.147 20.0587 198.499 20.3467 198.787 20.72C199.085 21.0933 199.309 21.5467 199.459 22.08C199.619 22.6133 199.699 23.2107 199.699 23.872C199.699 24.5333 199.619 25.1307 199.459 25.664C199.309 26.1973 199.085 26.6507 198.787 27.024C198.499 27.3973 198.147 27.6853 197.731 27.888C197.315 28.0907 196.851 28.192 196.339 28.192C195.219 28.192 194.413 27.68 193.923 26.656H193.859V31.2H192.579V19.744ZM195.987 27.04C196.712 27.04 197.283 26.816 197.699 26.368C198.115 25.9093 198.323 25.312 198.323 24.576V23.168C198.323 22.432 198.115 21.84 197.699 21.392C197.283 20.9333 196.712 20.704 195.987 20.704C195.699 20.704 195.421 20.7467 195.155 20.832C194.899 20.9067 194.675 21.0133 194.483 21.152C194.291 21.2907 194.136 21.4613 194.019 21.664C193.912 21.856 193.859 22.064 193.859 22.288V25.36C193.859 25.6267 193.912 25.8667 194.019 26.08C194.136 26.2827 194.291 26.4587 194.483 26.608C194.675 26.7467 194.899 26.8533 195.155 26.928C195.421 27.0027 195.699 27.04 195.987 27.04ZM207.86 28C207.38 28 207.033 27.872 206.82 27.616C206.617 27.36 206.489 27.04 206.436 26.656H206.356C206.175 27.168 205.876 27.552 205.46 27.808C205.044 28.064 204.548 28.192 203.972 28.192C203.097 28.192 202.415 27.968 201.924 27.52C201.444 27.072 201.204 26.464 201.204 25.696C201.204 24.9173 201.487 24.32 202.052 23.904C202.628 23.488 203.519 23.28 204.724 23.28H206.356V22.464C206.356 21.8773 206.196 21.4293 205.876 21.12C205.556 20.8107 205.065 20.656 204.404 20.656C203.903 20.656 203.481 20.768 203.14 20.992C202.809 21.216 202.532 21.5147 202.308 21.888L201.54 21.168C201.764 20.72 202.121 20.3413 202.612 20.032C203.103 19.712 203.721 19.552 204.468 19.552C205.471 19.552 206.249 19.7973 206.804 20.288C207.359 20.7787 207.636 21.4613 207.636 22.336V26.88H208.58V28H207.86ZM204.18 27.104C204.5 27.104 204.793 27.0667 205.06 26.992C205.327 26.9173 205.556 26.8107 205.748 26.672C205.94 26.5333 206.089 26.3733 206.196 26.192C206.303 26.0107 206.356 25.8133 206.356 25.6V24.24H204.66C203.924 24.24 203.385 24.3467 203.044 24.56C202.713 24.7733 202.548 25.0827 202.548 25.488V25.824C202.548 26.2293 202.692 26.544 202.98 26.768C203.279 26.992 203.679 27.104 204.18 27.104ZM211.379 26.128C211.72 26.128 211.966 26.2187 212.115 26.4C212.275 26.5707 212.355 26.7947 212.355 27.072V27.296C212.355 27.7333 212.227 28.2133 211.971 28.736C211.715 29.2693 211.358 29.7333 210.899 30.128H209.827C210.147 29.7867 210.403 29.4613 210.595 29.152C210.798 28.8533 210.942 28.5173 211.027 28.144C210.814 28.0907 210.654 27.9893 210.547 27.84C210.451 27.6907 210.403 27.5093 210.403 27.296V27.072C210.403 26.7947 210.478 26.5707 210.627 26.4C210.787 26.2187 211.038 26.128 211.379 26.128ZM221.776 28.192C221.2 28.192 220.682 28.0907 220.224 27.888C219.765 27.6853 219.376 27.3973 219.056 27.024C218.746 26.6507 218.506 26.1973 218.336 25.664C218.176 25.1307 218.096 24.5333 218.096 23.872C218.096 23.2107 218.176 22.6133 218.336 22.08C218.506 21.5467 218.746 21.0933 219.056 20.72C219.376 20.3467 219.765 20.0587 220.224 19.856C220.682 19.6533 221.2 19.552 221.776 19.552C222.597 19.552 223.253 19.7333 223.744 20.096C224.245 20.448 224.618 20.912 224.864 21.488L223.792 22.032C223.642 21.6053 223.397 21.2747 223.056 21.04C222.714 20.8053 222.288 20.688 221.776 20.688C221.392 20.688 221.056 20.752 220.768 20.88C220.48 20.9973 220.24 21.168 220.048 21.392C219.856 21.6053 219.712 21.8667 219.616 22.176C219.52 22.4747 219.472 22.8053 219.472 23.168V24.576C219.472 25.3013 219.664 25.8987 220.048 26.368C220.442 26.8267 221.018 27.056 221.776 27.056C222.81 27.056 223.557 26.576 224.016 25.616L224.944 26.24C224.677 26.8373 224.277 27.312 223.744 27.664C223.221 28.016 222.565 28.192 221.776 28.192ZM229.761 28.192C229.196 28.192 228.684 28.0907 228.225 27.888C227.777 27.6853 227.388 27.3973 227.057 27.024C226.737 26.64 226.486 26.1867 226.305 25.664C226.134 25.1307 226.049 24.5333 226.049 23.872C226.049 23.2213 226.134 22.6293 226.305 22.096C226.486 21.5627 226.737 21.1093 227.057 20.736C227.388 20.352 227.777 20.0587 228.225 19.856C228.684 19.6533 229.196 19.552 229.761 19.552C230.316 19.552 230.812 19.6533 231.249 19.856C231.686 20.0587 232.06 20.3413 232.369 20.704C232.678 21.056 232.913 21.4773 233.073 21.968C233.244 22.4587 233.329 22.9973 233.329 23.584V24.192H227.393V24.576C227.393 24.928 227.446 25.2587 227.553 25.568C227.67 25.8667 227.83 26.128 228.033 26.352C228.246 26.576 228.502 26.752 228.801 26.88C229.11 27.008 229.457 27.072 229.841 27.072C230.364 27.072 230.817 26.9493 231.201 26.704C231.596 26.4587 231.9 26.1067 232.113 25.648L233.025 26.304C232.758 26.8693 232.342 27.328 231.777 27.68C231.212 28.0213 230.54 28.192 229.761 28.192ZM229.761 20.624C229.409 20.624 229.089 20.688 228.801 20.816C228.513 20.9333 228.262 21.104 228.049 21.328C227.846 21.552 227.686 21.8187 227.569 22.128C227.452 22.4267 227.393 22.7573 227.393 23.12V23.232H231.953V23.056C231.953 22.32 231.75 21.7333 231.345 21.296C230.95 20.848 230.422 20.624 229.761 20.624ZM235.438 19.744H236.718V21.088H236.782C236.995 20.5653 237.305 20.1813 237.71 19.936C238.126 19.68 238.622 19.552 239.198 19.552C239.71 19.552 240.174 19.6533 240.59 19.856C241.006 20.0587 241.358 20.3467 241.646 20.72C241.945 21.0933 242.169 21.5467 242.318 22.08C242.478 22.6133 242.558 23.2107 242.558 23.872C242.558 24.5333 242.478 25.1307 242.318 25.664C242.169 26.1973 241.945 26.6507 241.646 27.024C241.358 27.3973 241.006 27.6853 240.59 27.888C240.174 28.0907 239.71 28.192 239.198 28.192C238.078 28.192 237.273 27.68 236.782 26.656H236.718V31.2H235.438V19.744ZM238.846 27.04C239.571 27.04 240.142 26.816 240.558 26.368C240.974 25.9093 241.182 25.312 241.182 24.576V23.168C241.182 22.432 240.974 21.84 240.558 21.392C240.142 20.9333 239.571 20.704 238.846 20.704C238.558 20.704 238.281 20.7467 238.014 20.832C237.758 20.9067 237.534 21.0133 237.342 21.152C237.15 21.2907 236.995 21.4613 236.878 21.664C236.771 21.856 236.718 22.064 236.718 22.288V25.36C236.718 25.6267 236.771 25.8667 236.878 26.08C236.995 26.2827 237.15 26.4587 237.342 26.608C237.534 26.7467 237.758 26.8533 238.014 26.928C238.281 27.0027 238.558 27.04 238.846 27.04ZM244.719 19.744H248.879C249.551 19.744 250.079 19.936 250.463 20.32C250.847 20.6933 251.039 21.2 251.039 21.84C251.039 22.8747 250.501 23.456 249.423 23.584V23.648C250.063 23.7013 250.538 23.904 250.847 24.256C251.167 24.5973 251.327 25.024 251.327 25.536C251.327 25.8667 251.274 26.1813 251.167 26.48C251.071 26.7787 250.927 27.04 250.735 27.264C250.543 27.488 250.309 27.6693 250.031 27.808C249.754 27.936 249.439 28 249.087 28H244.719V19.744ZM248.703 26.944C249.087 26.944 249.391 26.8427 249.615 26.64C249.839 26.4373 249.951 26.1493 249.951 25.776V25.408C249.951 25.0347 249.839 24.7467 249.615 24.544C249.391 24.3413 249.087 24.24 248.703 24.24H245.999V26.944H248.703ZM248.543 23.2C248.895 23.2 249.167 23.1147 249.359 22.944C249.562 22.7627 249.663 22.5067 249.663 22.176V21.824C249.663 21.4933 249.562 21.2427 249.359 21.072C249.167 20.8907 248.895 20.8 248.543 20.8H245.999V23.2H248.543ZM253.641 19.744H254.889V24.32L254.761 26.304H254.825L255.849 24.544L259.145 19.744H260.329V28H259.081V23.424L259.209 21.44H259.145L258.121 23.2L254.825 28H253.641V19.744ZM266.12 28.192C265.544 28.192 265.026 28.0907 264.568 27.888C264.109 27.6853 263.72 27.3973 263.4 27.024C263.09 26.6507 262.85 26.1973 262.68 25.664C262.52 25.1307 262.44 24.5333 262.44 23.872C262.44 23.2107 262.52 22.6133 262.68 22.08C262.85 21.5467 263.09 21.0933 263.4 20.72C263.72 20.3467 264.109 20.0587 264.568 19.856C265.026 19.6533 265.544 19.552 266.12 19.552C266.941 19.552 267.597 19.7333 268.088 20.096C268.589 20.448 268.962 20.912 269.208 21.488L268.136 22.032C267.986 21.6053 267.741 21.2747 267.4 21.04C267.058 20.8053 266.632 20.688 266.12 20.688C265.736 20.688 265.4 20.752 265.112 20.88C264.824 20.9973 264.584 21.168 264.392 21.392C264.2 21.6053 264.056 21.8667 263.96 22.176C263.864 22.4747 263.816 22.8053 263.816 23.168V24.576C263.816 25.3013 264.008 25.8987 264.392 26.368C264.786 26.8267 265.362 27.056 266.12 27.056C267.154 27.056 267.901 26.576 268.36 25.616L269.288 26.24C269.021 26.8373 268.621 27.312 268.088 27.664C267.565 28.016 266.909 28.192 266.12 28.192ZM271.094 19.744H272.374V22.736H274.566C275.398 22.736 276.06 22.9707 276.55 23.44C277.041 23.9093 277.286 24.5547 277.286 25.376C277.286 26.208 277.046 26.8533 276.566 27.312C276.086 27.7707 275.425 28 274.582 28H271.094V19.744ZM274.39 26.88C274.87 26.88 275.244 26.7893 275.51 26.608C275.777 26.4267 275.91 26.1227 275.91 25.696V25.024C275.91 24.5973 275.777 24.2987 275.51 24.128C275.244 23.9467 274.87 23.856 274.39 23.856H272.374V26.88H274.39ZM278.678 19.744H279.958V28H278.678V19.744Z" fill="#6E7A99"/>
<path opacity="0.5" d="M600.951 26.9507C598.099 29.8018 593.477 29.8018 590.626 26.9507C587.775 24.0995 587.775 19.4769 590.626 16.6258C593.477 13.7747 598.099 13.7747 600.951 16.6258C603.802 19.4769 603.802 24.0995 600.951 26.9507ZM600.951 26.9507L606.113 32.1131" stroke="#1D2435" stroke-width="1.4" stroke-linecap="round"/>
</svg>
