<svg width="16" height="16" viewBox="0 0 16 16" fill="none" xmlns="http://www.w3.org/2000/svg">
<path d="M15.5001 6.25249C15.4527 6.1153 15.3666 5.99481 15.2521 5.90561C15.1376 5.81642 14.9997 5.76236 14.8551 5.74999L10.5876 5.12749L8.6751 1.24999C8.61369 1.12318 8.5178 1.01624 8.39842 0.941417C8.27904 0.866591 8.141 0.826904 8.0001 0.826904C7.85921 0.826904 7.72117 0.866591 7.60179 0.941417C7.48241 1.01624 7.38652 1.12318 7.32511 1.24999L5.41261 5.11999L1.14511 5.74999C1.0063 5.76972 0.875798 5.82796 0.768418 5.91811C0.661037 6.00825 0.581075 6.12669 0.537605 6.25999C0.497814 6.39024 0.494243 6.52887 0.527276 6.66101C0.560309 6.79314 0.628698 6.91378 0.725105 7.00999L3.82261 10.01L3.07261 14.27C3.04583 14.4106 3.05985 14.5559 3.11301 14.6888C3.16617 14.8217 3.25625 14.9366 3.37261 15.02C3.48602 15.1011 3.61979 15.1489 3.75889 15.1582C3.898 15.1675 4.03693 15.1378 4.16011 15.0725L8.0001 13.07L11.8251 15.08C11.9304 15.1394 12.0492 15.1704 12.1701 15.17C12.329 15.1706 12.4839 15.1207 12.6126 15.0275C12.729 14.9441 12.819 14.8292 12.8722 14.6963C12.9254 14.5634 12.9394 14.4181 12.9126 14.2775L12.1626 10.0175L15.2601 7.01749C15.3684 6.92575 15.4484 6.80516 15.4909 6.66975C15.5334 6.53433 15.5366 6.38964 15.5001 6.25249ZM10.8876 9.25249C10.7996 9.33756 10.7338 9.44287 10.6959 9.55922C10.658 9.67557 10.6492 9.79942 10.6701 9.91999L11.2101 13.0625L8.39011 11.5625C8.28159 11.5047 8.16054 11.4745 8.03761 11.4745C7.91467 11.4745 7.79362 11.5047 7.6851 11.5625L4.86511 13.0625L5.40511 9.91999C5.42606 9.79942 5.41719 9.67557 5.37928 9.55922C5.34137 9.44287 5.27556 9.33756 5.18761 9.25249L2.93761 7.00249L6.09511 6.54499C6.2166 6.52809 6.3321 6.48164 6.43148 6.40973C6.53086 6.33781 6.61107 6.24262 6.6651 6.13249L8.0001 3.27499L9.4101 6.13999C9.46414 6.25012 9.54436 6.34531 9.64373 6.41723C9.74311 6.48914 9.85861 6.53559 9.98011 6.55249L13.1376 7.00999L10.8876 9.25249Z" fill="#69768F"/>
</svg>
